<svg width="24" height="19" viewBox="0 0 24 19" fill="none" xmlns="http://www.w3.org/2000/svg">
<path d="M0 18.75V13.5924C0 12.0702 0.280394 10.4674 0.841183 8.78402C1.40197 7.10064 2.18182 5.48889 3.18072 3.94878C4.17963 2.40866 5.35378 1.0924 6.70318 0L10.5936 2.84742C9.52464 4.44126 8.61336 6.10673 7.8598 7.84384C7.10624 9.58094 6.72946 11.4703 6.72946 13.5118V18.75H0ZM13.4064 18.75V13.5924C13.4064 12.0702 13.6867 10.4674 14.2475 8.78402C14.8083 7.10064 15.5882 5.48889 16.5871 3.94878C17.586 2.40866 18.7601 1.0924 20.1095 0L24 2.84742C22.931 4.44126 22.0197 6.10673 21.2662 7.84384C20.5126 9.58094 20.1358 11.4703 20.1358 13.5118V18.75H13.4064Z" fill="#1e2939"></path>
</svg>