<svg width="900" height="900" viewBox="0 0 900 900" fill="none" xmlns="http://www.w3.org/2000/svg">
<circle cx="450" cy="450" r="450" fill="#61C4B4"/>
<path fill-rule="evenodd" clip-rule="evenodd" d="M136.926 356.694C117.262 361.045 105.715 373.371 100.836 395.22C98.3913 406.17 98.3873 428.238 100.828 439.22C105.641 460.875 117.819 474.139 136.209 477.757C142.309 478.957 162.273 478.676 165.426 477.345C166.609 476.846 167.315 478.353 168.764 484.466C175.895 514.545 189.758 543.379 210.577 571.436C219.719 583.756 245.598 609.663 259.578 620.492C300.927 652.518 352.204 674.625 405.941 683.593C443.799 689.91 486.972 689.572 523.26 682.672C577.939 672.276 627.278 649.53 671.926 614.136C677.976 609.34 691.043 597.272 700.963 587.318C730.309 557.874 751.754 529.02 772.201 491.47L779.688 477.72H786.835C794.259 477.72 797.42 476.469 799.415 472.741C799.967 471.709 800.171 470.218 799.867 469.428C798.674 466.319 794.418 465.72 773.514 465.72C753.967 465.72 752.535 465.847 750.061 467.793C748.538 468.99 747.426 470.866 747.426 472.236C747.426 475.924 750.972 477.72 758.255 477.72C765.874 477.72 766.1 476.206 755.719 494.679C735.328 530.963 714.798 558.41 687.961 585.264C636.207 637.05 576.755 666.729 504.426 676.886C498.146 677.768 484.927 678.199 465.426 678.159C440.067 678.106 433.89 677.783 421.426 675.859C397.358 672.142 375.04 666.388 352.426 658.068C340.708 653.757 311.866 639.7 300.426 632.725C254.683 604.831 217.223 563.916 197.882 520.72C191.355 506.143 184.735 486.053 182.478 473.967C181.62 469.375 181.697 469.149 185.592 464.924C191.366 458.66 196.068 447.982 198.011 436.72C200.035 424.99 199.483 401.446 196.968 392.22C192.108 374.396 183.096 363.684 168.659 358.57C162.19 356.278 143.737 355.187 136.926 356.694ZM225.426 403.038C225.426 453.061 225.549 454.25 231.685 463.304C235.512 468.951 242.591 474.054 249.769 476.341C256.397 478.452 273.477 479.267 280.502 477.807C293.426 475.121 303.232 467.878 308.041 457.467L310.926 451.22L311.23 404.47L311.535 357.72H307.509H303.483L303.205 404.47L302.926 451.22L300.319 456.22C294.577 467.229 283.155 472.233 265.277 471.571C256.42 471.243 254.066 470.779 249.199 468.397C245.964 466.815 241.749 463.622 239.457 461.018C232.551 453.173 232.426 452.122 232.426 402.038V357.72H228.926H225.426V403.038ZM342.668 416.97L342.926 476.22L378.676 476.483L414.426 476.745V473.746V470.748L382.176 470.484L349.926 470.22L349.659 445.47L349.391 420.72H378.409H407.426V417.22V413.72H378.426H349.426V389.22V364.72H381.926H414.426V361.22V357.72H378.418H342.41L342.668 416.97ZM440.426 417.148V476.72H444.426H448.426V448.649V420.578L469.676 420.975C482.526 421.215 492.398 421.851 494.651 422.586C500.302 424.428 506.666 429.734 509.176 434.696C511.272 438.839 511.426 440.432 511.426 457.932V476.72H515.426H519.426L519.404 456.97C519.385 439.871 519.132 436.669 517.52 433.119C515.197 428.005 509.665 422.393 504.196 419.603L500.02 417.472L503.703 415.582C513.428 410.593 518.783 401.461 518.87 389.72C518.968 376.526 513.314 367.253 501.675 361.52L494.976 358.22L467.701 357.898L440.426 357.577V417.148ZM539.426 417.22V476.72H575.426H611.426V473.734V470.748L579.176 470.484L546.926 470.22L546.659 445.47L546.391 420.72H575.409H604.426V417.22V413.72H575.426H546.426V389.22V364.72H578.926H611.426V361.22V357.72H575.426H539.426V417.22ZM631.426 417.148V476.72H634.772H638.119L638.772 464.563C639.132 457.877 639.426 445.277 639.426 436.563V420.72L658.176 420.736C684.736 420.758 692.687 423.118 699.167 432.902C701.912 437.046 701.928 437.168 702.251 456.894L702.576 476.72H706.573H710.571L710.248 455.97C709.977 438.499 709.649 434.714 708.174 432.017C705.796 427.668 699.766 421.946 694.981 419.498L691.036 417.48L693.981 415.988C698.955 413.468 706.318 405.567 708.173 400.76C710.833 393.872 710.453 383.573 707.287 376.72C703.624 368.793 700.184 365.219 692.639 361.502L685.976 358.22L658.701 357.898L631.426 357.577V417.148ZM137.172 363.745C131.05 365.287 123.627 369.511 119.421 373.845C111.613 381.891 107.628 393.806 106.727 411.803C104.771 450.881 119.441 471.782 148.765 471.696C156.25 471.674 163.875 470.604 165.071 469.408C165.339 469.14 165.109 465.683 164.56 461.724C164.012 457.765 163.771 453.984 164.026 453.32C165.424 449.678 175.557 447.251 178.226 449.92C178.886 450.58 179.426 452.868 179.426 455.003C179.426 460.072 180.961 459.504 184.582 453.096C189.705 444.028 191.661 434.116 191.661 417.22C191.661 394.422 187.489 381.457 177.165 372.175C170.27 365.976 163.186 363.534 150.926 363.129C145.426 362.947 139.237 363.224 137.172 363.745ZM448.426 388.72V412.72H472.23H496.034L500.681 409.773C513.344 401.743 515.237 384.265 504.707 372.609C498.563 365.808 493.691 364.72 469.388 364.72H448.426V388.72ZM639.426 388.72V412.72H663.313H687.2L692.063 409.47C695.509 407.167 697.75 404.618 699.756 400.72C702.221 395.929 702.531 394.381 702.157 388.712C701.441 377.858 696.076 370.23 686.69 366.718C681.977 364.954 678.894 364.72 660.388 364.72H639.426V388.72Z" fill="white"/>
<path fill-rule="evenodd" clip-rule="evenodd" d="M343.668 500.498C342.676 501.168 342.464 513.619 342.668 559.284L342.926 617.22H368.926C399 617.22 401.963 616.639 410.346 609.102C425.504 595.474 424.594 571.294 408.516 560.467L403.471 557.069L406.838 553.805C415.429 545.478 418.775 531.309 414.903 519.652C412.538 512.532 405.761 505.775 397.867 502.669C392.35 500.498 390.249 500.306 368.426 499.989C355.501 499.801 344.36 500.03 343.668 500.498ZM436.668 500.549C435.676 501.179 435.464 513.598 435.668 559.284L435.926 617.22L471.654 617.483L507.382 617.745L507.982 615.353C508.312 614.038 508.435 611.67 508.254 610.091L507.926 607.22L477.426 606.72L446.926 606.22L446.656 585.486L446.386 564.752L473.656 564.486L500.926 564.22L501.237 559.317C501.443 556.071 501.105 554.132 500.237 553.582C499.516 553.125 487.114 552.744 472.676 552.735L446.426 552.72V532.22V511.72H476.226C498.07 511.72 506.346 511.4 507.226 510.52C508.778 508.968 508.778 502.472 507.226 500.92C505.837 499.531 438.827 499.179 436.668 500.549ZM523.666 500.88C522.708 501.838 522.429 514.984 522.441 558.67C522.45 589.773 522.831 615.81 523.288 616.531C523.838 617.399 525.777 617.737 529.023 617.531L533.926 617.22L534.426 567.961L534.926 518.701L554.322 549.758L573.717 580.814L578.773 580.517L583.829 580.22L600.184 554.22C609.179 539.92 617.975 525.97 619.732 523.22L622.926 518.22L623.426 567.72L623.926 617.22H628.926H633.926L634.184 559.284C634.388 513.598 634.176 501.179 633.184 500.549C631.077 499.211 620.697 499.592 619.228 501.061C618.491 501.798 609.124 516.164 598.413 532.984C587.702 549.804 578.711 563.349 578.432 563.085C578.154 562.821 568.916 548.568 557.903 531.412L537.881 500.22L531.394 499.93C527.209 499.743 524.466 500.08 523.666 500.88ZM354.426 532.301V552.882L372.252 552.551C389.785 552.225 390.148 552.174 394.244 549.461C405.771 541.827 408.002 524.879 398.599 516.375C394.472 512.643 389.608 511.81 371.676 511.764L354.426 511.72V532.301ZM354.426 585.326V606.932L373.676 606.539C394.775 606.108 396.582 605.67 403.203 599.385C406.504 596.252 409.426 588.904 409.426 583.735C409.426 579.322 404.7 571.167 400.55 568.421C394.555 564.454 390.114 563.732 371.676 563.726L354.426 563.72V585.326Z" fill="white"/>
</svg>
