<svg width="591" height="590" viewBox="0 0 591 590" fill="none" xmlns="http://www.w3.org/2000/svg">
<rect x="0.506165" width="589.815" height="589.815" rx="294.907" fill="#F05D62"/>
<path fill-rule="evenodd" clip-rule="evenodd" d="M91.6777 218.452C78.8828 221.283 71.3694 229.303 68.1948 243.52C66.6039 250.645 66.6013 265.004 68.1896 272.149C71.3213 286.24 79.2452 294.87 91.2111 297.225C95.1802 298.005 108.17 297.822 110.222 296.956C110.992 296.632 111.451 297.612 112.394 301.59C117.034 321.162 126.054 339.923 139.601 358.179C145.549 366.195 162.388 383.052 171.484 390.099C198.389 410.937 231.754 425.322 266.719 431.157C291.352 435.267 319.444 435.047 343.055 430.558C378.634 423.793 410.737 408.993 439.789 385.963C443.725 382.842 452.228 374.99 458.682 368.513C477.777 349.355 491.731 330.58 505.035 306.147L509.907 297.2H514.557C519.388 297.2 521.444 296.386 522.743 293.961C523.102 293.289 523.234 292.319 523.037 291.805C522.26 289.782 519.491 289.392 505.889 289.392C493.171 289.392 492.239 289.475 490.629 290.741C489.638 291.52 488.915 292.741 488.915 293.632C488.915 296.032 491.222 297.2 495.961 297.2C500.918 297.2 501.065 296.215 494.311 308.235C481.043 331.844 467.684 349.703 450.222 367.177C416.547 400.872 377.863 420.184 330.801 426.793C326.714 427.367 318.113 427.647 305.424 427.621C288.924 427.587 284.905 427.376 276.795 426.124C261.134 423.706 246.612 419.962 231.898 414.548C224.273 411.743 205.507 402.597 198.063 398.058C168.299 379.908 143.925 353.286 131.34 325.179C127.093 315.695 122.786 302.622 121.317 294.758C120.759 291.771 120.809 291.623 123.343 288.874C127.1 284.799 130.16 277.851 131.424 270.523C132.741 262.89 132.382 247.571 130.745 241.568C127.583 229.97 121.719 223 112.326 219.673C108.116 218.181 96.1094 217.471 91.6777 218.452ZM149.262 248.607C149.262 281.155 149.342 281.929 153.335 287.82C155.825 291.495 160.431 294.815 165.102 296.303C169.414 297.677 180.528 298.207 185.099 297.257C193.508 295.509 199.889 290.796 203.018 284.022L204.895 279.958L205.093 249.538L205.291 219.119H202.672H200.052L199.871 249.538L199.69 279.958L197.993 283.211C194.257 290.374 186.825 293.63 175.192 293.199C169.429 292.986 167.898 292.684 164.731 291.134C162.626 290.105 159.883 288.027 158.392 286.333C153.898 281.228 153.817 280.544 153.817 247.956V219.119H151.54H149.262V248.607ZM225.549 257.672L225.717 296.224L248.978 296.396L272.24 296.566V294.615V292.664L251.256 292.492L230.271 292.32L230.098 276.216L229.923 260.112H248.805H267.685V257.835V255.557H248.816H229.946V239.616V223.674H251.093H272.24V221.397V219.119H248.81H225.381L225.549 257.672ZM289.157 257.788V296.55H291.76H294.363V278.285V260.02L308.19 260.278C316.551 260.434 322.974 260.848 324.44 261.326C328.117 262.525 332.258 265.977 333.891 269.206C335.255 271.902 335.355 272.938 335.355 284.325V296.55H337.958H340.561L340.546 283.699C340.534 272.573 340.369 270.49 339.321 268.18C337.809 264.852 334.209 261.201 330.651 259.385L327.934 257.999L330.33 256.769C336.658 253.523 340.142 247.581 340.199 239.941C340.263 231.356 336.584 225.322 329.011 221.592L324.652 219.445L306.905 219.235L289.157 219.026V257.788ZM353.574 257.835V296.55H376.999H400.423V294.607V292.664L379.439 292.492L358.454 292.32L358.281 276.216L358.106 260.112H376.987H395.868V257.835V255.557H376.999H358.129V239.616V223.674H379.276H400.423V221.397V219.119H376.999H353.574V257.835ZM413.436 257.788V296.55H415.613H417.791L418.216 288.639C418.45 284.289 418.642 276.091 418.642 270.421V260.112L430.842 260.122C448.124 260.137 453.297 261.672 457.514 268.038C459.3 270.735 459.31 270.814 459.52 283.649L459.732 296.55H462.333H464.934L464.724 283.048C464.548 271.68 464.334 269.218 463.374 267.463C461.827 264.633 457.903 260.91 454.79 259.317L452.223 258.004L454.139 257.033C457.376 255.393 462.167 250.252 463.374 247.124C465.104 242.643 464.857 235.941 462.797 231.482C460.414 226.324 458.175 223.999 453.266 221.58L448.931 219.445L431.184 219.235L413.436 219.026V257.788ZM91.8377 223.04C87.8543 224.043 83.0243 226.792 80.2876 229.612C75.2071 234.847 72.6142 242.6 72.0279 254.31C70.7552 279.737 80.3006 293.337 99.381 293.281C104.251 293.266 109.213 292.57 109.991 291.792C110.165 291.618 110.016 289.368 109.658 286.792C109.302 284.216 109.145 281.756 109.311 281.324C110.221 278.954 116.814 277.375 118.551 279.112C118.98 279.541 119.331 281.03 119.331 282.419C119.331 285.717 120.33 285.348 122.686 281.178C126.02 275.278 127.292 268.828 127.292 257.835C127.292 243.001 124.578 234.565 117.86 228.525C113.374 224.491 108.764 222.902 100.787 222.639C97.2084 222.521 93.1814 222.701 91.8377 223.04ZM294.363 239.29V254.907H309.851H325.34L328.364 252.989C336.603 247.764 337.835 236.392 330.983 228.807C326.986 224.382 323.816 223.674 308.002 223.674H294.363V239.29ZM418.642 239.29V254.907H434.184H449.727L452.891 252.792C455.134 251.293 456.592 249.635 457.897 247.098C459.501 243.981 459.703 242.974 459.459 239.285C458.993 232.223 455.502 227.259 449.395 224.974C446.329 223.826 444.323 223.674 432.281 223.674H418.642V239.29Z" fill="white"/>
<path fill-rule="evenodd" clip-rule="evenodd" d="M226.199 312.021C225.554 312.457 225.416 320.559 225.549 350.272L225.716 387.969H242.634C262.202 387.969 264.13 387.591 269.585 382.687C279.448 373.82 278.856 358.086 268.394 351.042L265.112 348.831L267.302 346.707C272.892 341.289 275.069 332.069 272.55 324.484C271.011 319.851 266.602 315.455 261.465 313.434C257.875 312.021 256.508 311.896 242.309 311.69C233.899 311.568 226.649 311.717 226.199 312.021ZM286.712 312.054C286.066 312.464 285.929 320.545 286.061 350.272L286.229 387.969L309.476 388.14L332.724 388.311L333.114 386.754C333.329 385.899 333.409 384.358 333.291 383.331L333.078 381.463L313.232 381.137L293.387 380.812L293.211 367.321L293.035 353.83L310.779 353.657L328.523 353.484L328.725 350.293C328.859 348.181 328.639 346.92 328.075 346.562C327.606 346.264 319.536 346.016 310.141 346.011L293.061 346.001V332.662V319.323H312.451C326.665 319.323 332.05 319.115 332.622 318.542C333.632 317.532 333.632 313.306 332.622 312.296C331.718 311.392 288.117 311.163 286.712 312.054ZM343.319 312.27C342.696 312.893 342.514 321.447 342.522 349.872C342.528 370.11 342.776 387.052 343.073 387.521C343.431 388.086 344.693 388.306 346.805 388.172L349.995 387.969L350.321 355.918L350.646 323.865L363.266 344.073L375.886 364.281L379.176 364.088L382.466 363.894L393.108 346.977C398.961 337.672 404.684 328.595 405.827 326.806L407.905 323.552L408.231 355.761L408.556 387.969H411.809H415.063L415.231 350.272C415.363 320.545 415.225 312.464 414.58 312.054C413.209 311.184 406.455 311.432 405.499 312.388C405.02 312.867 398.925 322.215 391.955 333.159C384.986 344.103 379.136 352.917 378.954 352.745C378.773 352.573 372.762 343.299 365.596 332.136L352.569 311.84L348.348 311.652C345.625 311.53 343.84 311.749 343.319 312.27ZM233.199 332.715V346.106L244.798 345.891C256.206 345.679 256.443 345.646 259.108 343.88C266.608 338.913 268.06 327.885 261.941 322.352C259.256 319.924 256.091 319.382 244.423 319.352L233.199 319.323V332.715ZM233.199 367.217V381.275L245.725 381.019C259.453 380.739 260.629 380.454 264.937 376.365C267.085 374.326 268.986 369.545 268.986 366.181C268.986 363.31 265.911 358.004 263.211 356.217C259.31 353.636 256.42 353.166 244.423 353.162L233.199 353.158V367.217Z" fill="white"/>
</svg>
