<svg width="701" height="333" viewBox="0 0 701 333" fill="none" xmlns="http://www.w3.org/2000/svg">
<path fill-rule="evenodd" clip-rule="evenodd" d="M37.9263 0.694447C18.2623 5.04545 6.71525 17.3714 1.83625 39.2204C-0.608746 50.1704 -0.612749 72.2385 1.82825 83.2205C6.64125 104.875 18.8192 118.139 37.2092 121.757C43.3092 122.957 63.2733 122.676 66.4263 121.345C67.6093 120.846 68.3153 122.353 69.7643 128.466C76.8953 158.545 90.7583 187.379 111.577 215.436C120.719 227.756 146.598 253.663 160.578 264.492C201.927 296.518 253.204 318.625 306.941 327.593C344.799 333.91 387.972 333.572 424.26 326.672C478.939 316.276 528.278 293.53 572.926 258.136C578.976 253.34 592.043 241.272 601.963 231.318C631.309 201.874 652.754 173.02 673.201 135.47L680.688 121.72H687.835C695.259 121.72 698.42 120.469 700.415 116.741C700.967 115.709 701.171 114.218 700.867 113.428C699.674 110.319 695.418 109.72 674.514 109.72C654.967 109.72 653.535 109.847 651.061 111.793C649.538 112.99 648.426 114.866 648.426 116.236C648.426 119.924 651.972 121.72 659.255 121.72C666.874 121.72 667.1 120.206 656.719 138.679C636.328 174.963 615.798 202.41 588.961 229.264C537.207 281.05 477.755 310.729 405.426 320.886C399.146 321.768 385.927 322.199 366.426 322.159C341.067 322.106 334.89 321.783 322.426 319.859C298.358 316.142 276.04 310.388 253.426 302.068C241.708 297.757 212.866 283.7 201.426 276.725C155.683 248.831 118.223 207.916 98.8822 164.72C92.3552 150.143 85.7353 130.053 83.4783 117.967C82.6203 113.375 82.6973 113.149 86.5923 108.924C92.3663 102.66 97.0683 91.9825 99.0113 80.7205C101.035 68.9905 100.483 45.4464 97.9683 36.2204C93.1083 18.3964 84.0963 7.68445 69.6593 2.57045C63.1903 0.278447 44.7373 -0.812553 37.9263 0.694447ZM126.426 47.0384C126.426 97.0614 126.549 98.2505 132.685 107.304C136.512 112.951 143.591 118.054 150.769 120.341C157.397 122.452 174.477 123.267 181.502 121.807C194.426 119.121 204.232 111.878 209.041 101.467L211.926 95.2205L212.23 48.4704L212.535 1.72045H208.509H204.483L204.205 48.4704L203.926 95.2205L201.319 100.22C195.577 111.229 184.155 116.233 166.277 115.571C157.42 115.243 155.066 114.779 150.199 112.397C146.964 110.815 142.749 107.622 140.457 105.018C133.551 97.1735 133.426 96.1224 133.426 46.0384V1.72045H129.926H126.426V47.0384ZM243.668 60.9704L243.926 120.22L279.676 120.483L315.426 120.745V117.746V114.748L283.176 114.484L250.926 114.22L250.659 89.4705L250.391 64.7205H279.409H308.426V61.2204V57.7204H279.426H250.426V33.2204V8.72045H282.926H315.426V5.22045V1.72045H279.418H243.41L243.668 60.9704ZM341.426 61.1484V120.72H345.426H349.426V92.6495V64.5785L370.676 64.9755C383.526 65.2155 393.398 65.8514 395.651 66.5864C401.302 68.4284 407.666 73.7344 410.176 78.6964C412.272 82.8394 412.426 84.4325 412.426 101.932V120.72H416.426H420.426L420.404 100.97C420.385 83.8715 420.132 80.6695 418.52 77.1195C416.197 72.0055 410.665 66.3934 405.196 63.6034L401.02 61.4724L404.703 59.5824C414.428 54.5934 419.783 45.4614 419.87 33.7204C419.968 20.5264 414.314 11.2535 402.675 5.52045L395.976 2.22045L368.701 1.89845L341.426 1.57745V61.1484ZM440.426 61.2204V120.72H476.426H512.426V117.734V114.748L480.176 114.484L447.926 114.22L447.659 89.4705L447.391 64.7205H476.409H505.426V61.2204V57.7204H476.426H447.426V33.2204V8.72045H479.926H512.426V5.22045V1.72045H476.426H440.426V61.2204ZM532.426 61.1484V120.72H535.772H539.119L539.772 108.563C540.132 101.877 540.426 89.2775 540.426 80.5635V64.7205L559.176 64.7365C585.736 64.7585 593.687 67.1185 600.167 76.9025C602.912 81.0465 602.928 81.1684 603.251 100.894L603.576 120.72H607.573H611.571L611.248 99.9705C610.977 82.4995 610.649 78.7144 609.174 76.0174C606.796 71.6684 600.766 65.9464 595.981 63.4984L592.036 61.4804L594.981 59.9885C599.955 57.4685 607.318 49.5674 609.173 44.7604C611.833 37.8724 611.453 27.5734 608.287 20.7204C604.624 12.7934 601.184 9.21945 593.639 5.50245L586.976 2.22045L559.701 1.89845L532.426 1.57745V61.1484ZM38.1723 7.74545C32.0503 9.28745 24.6273 13.5114 20.4213 17.8454C12.6133 25.8914 8.62825 37.8064 7.72725 55.8034C5.77125 94.8814 20.4412 115.782 49.7652 115.696C57.2502 115.674 64.8753 114.604 66.0713 113.408C66.3393 113.14 66.1093 109.683 65.5603 105.724C65.0123 101.765 64.7713 97.9845 65.0263 97.3205C66.4243 93.6785 76.5573 91.2514 79.2263 93.9204C79.8863 94.5804 80.4263 96.8685 80.4263 99.0035C80.4263 104.072 81.9613 103.504 85.5823 97.0965C90.7053 88.0285 92.6613 78.1164 92.6613 61.2204C92.6613 38.4224 88.4893 25.4574 78.1653 16.1754C71.2703 9.97645 64.1863 7.53445 51.9263 7.12945C46.4263 6.94745 40.2373 7.22445 38.1723 7.74545ZM349.426 32.7204V56.7204H373.23H397.034L401.681 53.7734C414.344 45.7434 416.237 28.2654 405.707 16.6094C399.563 9.80845 394.691 8.72045 370.388 8.72045H349.426V32.7204ZM540.426 32.7204V56.7204H564.313H588.2L593.063 53.4704C596.509 51.1674 598.75 48.6184 600.756 44.7204C603.221 39.9294 603.531 38.3814 603.157 32.7124C602.441 21.8584 597.076 14.2304 587.69 10.7184C582.977 8.95445 579.894 8.72045 561.388 8.72045H540.426V32.7204Z" fill="#F05D62"/>
<path fill-rule="evenodd" clip-rule="evenodd" d="M244.668 144.498C243.676 145.168 243.464 157.619 243.668 203.284L243.926 261.22H269.926C300 261.22 302.963 260.639 311.346 253.102C326.504 239.474 325.594 215.294 309.516 204.467L304.471 201.069L307.838 197.805C316.429 189.478 319.775 175.309 315.903 163.652C313.538 156.532 306.761 149.775 298.867 146.669C293.35 144.498 291.249 144.306 269.426 143.989C256.501 143.801 245.36 144.03 244.668 144.498ZM337.668 144.549C336.676 145.179 336.464 157.598 336.668 203.284L336.926 261.22L372.654 261.483L408.382 261.745L408.982 259.353C409.312 258.038 409.435 255.67 409.254 254.091L408.926 251.22L378.426 250.72L347.926 250.22L347.656 229.486L347.386 208.752L374.656 208.486L401.926 208.22L402.237 203.317C402.443 200.071 402.105 198.132 401.237 197.582C400.516 197.125 388.114 196.744 373.676 196.735L347.426 196.72V176.22V155.72H377.226C399.07 155.72 407.346 155.4 408.226 154.52C409.778 152.968 409.778 146.472 408.226 144.92C406.837 143.531 339.827 143.179 337.668 144.549ZM424.666 144.88C423.708 145.838 423.429 158.984 423.441 202.67C423.45 233.773 423.831 259.81 424.288 260.531C424.838 261.399 426.777 261.737 430.023 261.531L434.926 261.22L435.426 211.961L435.926 162.701L455.322 193.758L474.717 224.814L479.773 224.517L484.829 224.22L501.184 198.22C510.179 183.92 518.975 169.97 520.732 167.22L523.926 162.22L524.426 211.72L524.926 261.22H529.926H534.926L535.184 203.284C535.388 157.598 535.176 145.179 534.184 144.549C532.077 143.211 521.697 143.592 520.228 145.061C519.491 145.798 510.124 160.164 499.413 176.984C488.702 193.804 479.711 207.349 479.432 207.085C479.154 206.821 469.916 192.568 458.903 175.412L438.881 144.22L432.394 143.93C428.209 143.743 425.466 144.08 424.666 144.88ZM255.426 176.301V196.882L273.252 196.551C290.785 196.225 291.148 196.174 295.244 193.461C306.771 185.827 309.002 168.879 299.599 160.375C295.472 156.643 290.608 155.81 272.676 155.764L255.426 155.72V176.301ZM255.426 229.326V250.932L274.676 250.539C295.775 250.108 297.582 249.67 304.203 243.385C307.504 240.252 310.426 232.904 310.426 227.735C310.426 223.322 305.7 215.167 301.55 212.421C295.555 208.454 291.114 207.732 272.676 207.726L255.426 207.72V229.326Z" fill="#61C4B4"/>
</svg>
